<svg xmlns="http://www.w3.org/2000/svg" viewBox="0 0 760.99 188.09"><defs><style>.cls-1{font-size:128.84px;fill:#fff;font-family:BerlinSansFB-Reg, Berlin Sans FB;}.cls-2{fill:#8686e2;stroke-miterlimit:10;}.cls-2,.cls-3{stroke:#1b3346;}.cls-3{fill:#00c99e;stroke-linecap:round;stroke-linejoin:round;}</style></defs><g id="BACKGROUND"><text class="cls-1" transform="translate(265.98 139.82) scale(0.68 1)">UfuomaCares</text></g><g id="OBJECTS"><path class="cls-2" d="M222.68,117.59c-.69-.19-1.4-.35-2.13-.5a86.48,86.48,0,0,0-23.5-1.31h0A86.93,86.93,0,0,0,145.76,140c-13.85-15-36.2-24.49-58.49-24.49-42.13,0-76.4,28.9-76.4,64.42,0,28.46,21.6,53.16,53.8,61.55l.61.25h.4a80.36,80.36,0,0,0,18,1.93c2.39,0,4.73-.1,7-.29A86.72,86.72,0,0,0,142,219.11c23.14-22.66,50.45-54.9,51.47-56.32,3.15-4.38,1.48-10.1-3.71-12.75s-12-1.25-15.13,3.13c-.24.34-27.36,32.32-49.32,53.82C110,221.94,93.19,224.47,88.4,224.88a58.16,58.16,0,0,1-16.89-1.07l-.08,0c-23.05-5.91-38.54-23.54-38.54-43.87,0-25.28,24.4-45.84,54.38-45.84,18.86,0,38.33,10.24,46.3,24.36a9.82,9.82,0,0,0,3.83,3.73,9.53,9.53,0,0,0,1,.76,12.18,12.18,0,0,0,6.65,1.9,11.79,11.79,0,0,0,8.79-3.68c3.2-3.56,6.07-6.59,8.53-9,15.29-15,32.1-17.47,36.9-17.88a57.6,57.6,0,0,1,17,1.1c.58.14,1.16.31,1.72.48l5.88,1.72V120.91h-2.42Z" transform="translate(-10.37 -115)"/><path class="cls-2" d="M276.34,179.14a56,56,0,0,0-2.39-15c-.3-1-2.6-7.39-3.85-9.37L268,151.36l-18.85,8.93,1.4,3a39.76,39.76,0,0,1,3.78,16.16,39.3,39.3,0,0,1-3.77,17.66,60.19,60.19,0,0,1-5.6,9.06c-.08.11-.17.21-.26.32a166.52,166.52,0,0,1-17.3,18.93c-10.26,9.78-26.8,21-50.56,34.39-5.08,2.85-6.45,8.63-3.06,12.91a11.7,11.7,0,0,0,9.12,4.15,12.53,12.53,0,0,0,6.19-1.57c25.72-14.46,43.15-26.38,54.85-37.54,2-1.87,3.79-3.68,5.48-5.4a11.53,11.53,0,0,0,1-.84A126.83,126.83,0,0,0,262,218.2c.88-1.11,1.36-1.76,1.43-1.86a9,9,0,0,0,.5-.76A77.06,77.06,0,0,0,271,204,55.27,55.27,0,0,0,276.34,179.14Z" transform="translate(-10.37 -115)"/><path class="cls-3" d="M37.8,246.64a137.53,137.53,0,0,0,41.58,33.8l1,.52A229.6,229.6,0,0,0,112,294.26c5.7,1.93,11.17,4.25,17.08,5.81,2.23.59,4.5,1.1,6.79,1.52,1.81.34,4.69,1.2,6.54,1,3.07-.41.14-6.6-.29-8.2a56.16,56.16,0,0,0-3.84-10.73,186.34,186.34,0,0,0-12-20.77,119.37,119.37,0,0,0-18.91-22.66c-3.68-3.36-9-5.17-13.88-7.41l-18-8.19a2.81,2.81,0,0,0-1.2-.34,2.39,2.39,0,0,0-1.2.44,6,6,0,0,0-2.6,6.05,14.58,14.58,0,0,0,3.14,6.14,93.85,93.85,0,0,0,10.7,12c2.13,2,4.29,3.93,6.44,5.9,1.57,1.44,3.75,4.58,5.84,5.47a224.08,224.08,0,0,1-23.18-11c-1-.56-1.91-1.14-2.79-1.76-13.87-9.58-17.56-25.43-31.61-35a11.67,11.67,0,0,0-3.69-2c-1.4-.28-3.16.38-4.53.67l-5.17-8.1a13.11,13.11,0,0,0-3.78-4.31,6.84,6.84,0,0,0-6.26-.67c-.52.25.49,4.57.58,5.15.3,1.9.7,3.78,1.18,5.65C20.73,222.28,28.18,235.25,37.8,246.64Z" transform="translate(-10.37 -115)"/><path class="cls-3" d="M249.45,246.64a137.36,137.36,0,0,1-41.57,33.8l-1,.52a229.6,229.6,0,0,1-31.57,13.3c-5.7,1.93-11.18,4.25-17.08,5.81-2.23.59-4.5,1.1-6.79,1.52-1.81.34-4.69,1.2-6.54,1-3.07-.41-.15-6.6.28-8.2A57.56,57.56,0,0,1,149,283.62a187.92,187.92,0,0,1,12-20.77A119.8,119.8,0,0,1,180,240.19c3.68-3.36,8.95-5.17,13.87-7.41l18-8.19a2.77,2.77,0,0,1,1.2-.34,2.33,2.33,0,0,1,1.19.44,6,6,0,0,1,2.6,6.05,14.44,14.44,0,0,1-3.13,6.14,94.62,94.62,0,0,1-10.7,12c-2.13,2-4.29,3.93-6.44,5.9-1.57,1.44-3.75,4.58-5.85,5.47a223.28,223.28,0,0,0,23.19-11c1-.56,1.9-1.14,2.79-1.76,13.87-9.58,17.56-25.43,31.6-35a11.89,11.89,0,0,1,3.69-2c1.41-.28,3.17.38,4.54.67q2.58-4,5.17-8.1a13.11,13.11,0,0,1,3.78-4.31,6.84,6.84,0,0,1,6.26-.67c.52.25-.49,4.57-.58,5.15q-.46,2.85-1.18,5.65C266.53,222.28,259.08,235.25,249.45,246.64Z" transform="translate(-10.37 -115)"/><path class="cls-3" d="M257.59,146.71H237.47v-17c0-6.89-6.66-12.5-14.84-12.5s-14.82,5.61-14.82,12.5v17H187.69c-8.18,0-14.83,5.6-14.83,12.5s6.65,12.5,14.83,12.5h20.12v17c0,6.89,6.65,12.5,14.82,12.5s14.84-5.61,14.84-12.5v-17h20.12c8.17,0,14.82-5.61,14.82-12.5S265.76,146.71,257.59,146.71Z" transform="translate(-10.37 -115)"/></g></svg>